<svg width="18" height="23" viewBox="0 0 18 23" fill="none" xmlns="http://www.w3.org/2000/svg">
<path d="M8.69561 6.66445C7.33593 6.66445 6.21349 7.86393 6.21349 9.32893C6.21349 10.7955 7.33593 11.995 8.69561 11.995C10.0553 11.995 11.1777 10.7955 11.1777 9.32893C11.1777 7.86393 10.0553 6.66445 8.69561 6.66445ZM8.69561 0C12.7588 0 17.3912 3.27863 17.3912 9.52884C17.3912 13.5016 14.7509 17.6855 9.45447 22.0437C9.01178 22.4179 8.37944 22.4179 7.93675 22.0437C2.64033 17.6727 0 13.5016 0 9.52884C0 3.27863 4.63239 0 8.69561 0Z" fill="#405368" stroke="#fff"/>
</svg>
